<svg width="83" height="70" viewBox="0 0 83 70" fill="none" xmlns="http://www.w3.org/2000/svg">
<path d="M28 22.5C28 15.5964 33.5964 10 40.5 10C47.4036 10 53 15.5964 53 22.5V57.5C53 64.4036 47.4036 70 40.5 70C33.5964 70 28 64.4036 28 57.5V22.5Z" fill="#164659"/>
<path d="M60 44.5C60 38.1487 65.1487 33 71.5 33C77.8513 33 83 38.1487 83 44.5V58.5C83 64.8513 77.8513 70 71.5 70C65.1487 70 60 64.8513 60 58.5V44.5Z" fill="#164659"/>
<path d="M0 10C0 4.47715 4.47715 0 10 0C15.5228 0 20 4.47715 20 10V60C20 65.5229 15.5228 70 10 70C4.47715 70 0 65.5229 0 60V10Z" fill="#164659"/>
</svg>
